<?xml version="1.0" encoding="utf-8"?>
<!-- Generator: Adobe Illustrator 24.0.3, SVG Export Plug-In . SVG Version: 6.00 Build 0)  -->
<svg version="1.1" id="Layer_1" xmlns="http://www.w3.org/2000/svg" xmlns:xlink="http://www.w3.org/1999/xlink" x="0px" y="0px"
	 viewBox="0 0 500 140" style="enable-background:new 0 0 500 140;" xml:space="preserve">
<style type="text/css">
	.st0{fill:#F4EDE4;}
	.st1{fill:#007F79;}
	.st2{fill:#0E497A;}
	.st3{fill:#EFA53A;}
	.st4{fill:#8BCAEA;}
</style>
<g>
	<g>
		<polygon points="87.81,113.13 87.81,128.58 5,128.58 5,11.42 86.18,11.42 86.18,26.87 22.4,26.87 22.4,60.24 79.68,60.24 
			79.68,75.69 22.4,75.69 22.4,113.13 		" />
	</g>
	<g>
		<path d="M210.83,110.98c9.28-11.21,14.17-25.38,14.17-41.06c0-17.66-6.3-33.63-17.76-44.97c-11.45-11.34-27.6-17.6-45.46-17.6
			s-33.98,6.25-45.4,17.61c-11.39,11.33-17.67,27.29-17.67,44.96c0,36.93,25.94,62.73,63.07,62.73c14,0,27.11-3.98,37.96-11.52
			l7.93,7.46h22.69L210.83,110.98z M169.58,74.23h-22.7l40.27,35.91c-7.21,4.63-15.95,7.06-25.36,7.06
			c-26.55,0-45.82-19.88-45.82-47.28c0-27.74,18.84-47.12,45.82-47.12c26.63,0,45.98,19.82,45.98,47.12
			c0,11.45-3.29,21.74-9.52,29.81L169.58,74.23z"/>
	</g>
	<g>
		<path d="M338.76,11.42v71.85c0,28.61-20.22,49.38-48.08,49.38c-28.05,0-48.41-20.77-48.41-49.38V11.42h17.4v71.85
			c0,19.66,13.04,33.93,31,33.93c18.16,0,30.85-13.95,30.85-33.93V11.42H338.76z"/>
	</g>
	<g>
		<rect x="363.2" y="11.42" width="17.23" height="117.16"/>
	</g>
	<g>
		<path d="M485.59,23.02c-7.53-7.59-18.93-11.6-32.97-11.6h-46.95v117.16h16.92V84.15h30.03c25.75,0,42.38-14.27,42.38-36.36
			C495.07,37.86,491.82,29.3,485.59,23.02z M452.61,68.54h-30.03V26.87h30.03c15.61,0,25.31,8.02,25.31,20.91
			C477.92,60.59,468.22,68.54,452.61,68.54z"/>
	</g>
</g>
</svg>
