<svg id="Layer_1" data-name="Layer 1" xmlns="http://www.w3.org/2000/svg" viewBox="0 0 800 800"><defs><style>.cls-1{fill:#e5a750;}.cls-2{fill:#007f79;}.cls-3{fill:#80bfbc;}</style></defs><path class="cls-1" d="M730,21.59H399.07c1.25,57.2,24.13,103.08,70.47,135,58.77,40.42,120.89,41.56,182.34,5.73C708.31,129.37,732.61,66.48,730,21.59Z"/><path class="cls-2" d="M729.86,188H199.12c2,91.75,38.7,165.33,113,216.45,94.27,64.84,193.9,66.65,292.46,9.19C695.11,360.86,734.08,260,729.86,188Z"/><path class="cls-3" d="M729.78,454.51H69.84C72.32,568.59,118,660.08,210.37,723.64c117.22,80.63,241.1,82.89,363.66,11.43C686.57,669.45,735,544,729.78,454.51Z"/></svg>