<svg width="800" height="800" viewBox="0 0 800 800" fill="none"
  xmlns="http://www.w3.org/2000/svg">
  <path d="M792.82 633.08H488.13C489.28 580.4 510.35 538.16 553.01 508.82C607.13 471.59 664.33 470.55 720.91 503.54C772.87 533.84 795.25 591.74 792.82 633.08Z" fill="#007F79"/>
  <path d="M792.82 478H488.13C489.28 425.32 510.35 383.08 553.01 353.74C607.13 316.51 664.33 315.47 720.91 348.46C772.87 378.78 795.25 436.68 792.82 478Z" fill="#007F79"/>
  <path d="M792.82 323H488.13C489.28 270.28 510.35 228 553 198.69C607.12 161.47 664.32 160.43 720.9 193.42C772.87 223.71 795.25 281.62 792.82 323Z" fill="#007F79"/>
  <path d="M483.76 399.81C483.76 531.89 376.45 639.42 245.23 638.37C107.53 637.27 5.47037 525.11 7.00037 395.08C8.53037 268 116.07 161.63 246 161.62C377.33 161.61 483.75 268.2 483.76 399.81Z" fill="#8BCAEA"/>
</svg>
