<svg width="786" height="364" viewBox="0 0 786 364" fill="none"
  xmlns="http://www.w3.org/2000/svg">
  <path d="M272.45 363.255H513.14C512.23 321.645 495.59 288.255 461.88 265.095C419.13 235.695 373.95 234.865 329.25 260.925C288.21 284.865 270.53 330.605 272.45 363.255Z" fill="#007F79"/>
  <path d="M272.45 242.255H513.14C512.23 200.645 495.59 167.255 461.88 144.095C419.13 114.695 373.95 113.865 329.25 139.925C288.21 163.865 270.53 209.605 272.45 242.255Z" fill="#007F79"/>
  <path d="M0.450193 363.255H241.14C240.23 321.645 223.59 288.255 189.88 265.095C147.13 235.695 101.95 234.865 57.2502 260.925C16.2102 284.865 -1.46981 330.605 0.450193 363.255Z" fill="#8BCAEA"/>
  <path d="M544.449 363.255H785.139C784.229 321.645 767.589 288.255 733.879 265.095C691.129 235.695 645.949 234.865 601.249 260.925C560.209 284.865 542.529 330.605 544.449 363.255Z" fill="#0E497A"/>
  <path d="M544.449 242.165H785.139C784.229 200.565 767.589 167.165 733.879 144.015C691.129 114.605 645.949 113.785 601.249 139.845C560.209 163.775 542.529 209.515 544.449 242.165Z" fill="#0E497A"/>
  <path d="M544.449 121.085H785.139C784.229 79.4748 767.589 46.0848 733.879 22.9248C691.129 -6.47522 645.949 -7.30522 601.249 18.7548C560.209 42.6948 542.529 88.4348 544.449 121.085Z" fill="#0E497A"/>
</svg>
