<svg id="Layer_1" data-name="Layer 1" xmlns="http://www.w3.org/2000/svg" viewBox="0 0 800 800"><defs><style>.cls-1{fill:#007f79;}.cls-2{fill:#0e497a;}.cls-3{fill:#7297ad;}</style></defs><path class="cls-1" d="M223.55,101.58c0,51.34,41.7,93.13,92.71,92.72,53.52-.42,93.19-44,92.59-94.56C408.26,50.34,366.46,9,316,9A92.48,92.48,0,0,0,223.55,101.58Z"/><path class="cls-2" d="M235,238.2,503.55,124.86c18.54,46.75,15.65,91.73-11.06,133.4-33.89,52.87-83.91,75.06-146,67.1C289.43,318.05,248.22,275.46,235,238.2Z"/><path class="cls-3" d="M173.76,788H626.24c-3.13-10.56-8.4-18.76-13.41-27-40.79-67.27-95.92-105.65-163-119-62-12.38-122-4-178.52,30.72-38.94,23.93-70,59-93.61,103.77C176.07,779.57,174.21,782.68,173.76,788Z"/><path class="cls-1" d="M280.56,479.16c0,87.71,71.25,159.11,158.39,158.42,91.44-.73,159.22-75.21,158.19-161.56-1-84.39-72.42-155-158.67-155C351.23,321,280.57,391.77,280.56,479.16Z"/></svg>